<svg id="Layer_1" data-name="Layer 1" xmlns="http://www.w3.org/2000/svg" xmlns:xlink="http://www.w3.org/1999/xlink" viewBox="0 0 3061.23 2385.97"><defs><style>.cls-1,.cls-36,.cls-38,.cls-40,.cls-42,.cls-43,.cls-45,.cls-46,.cls-48,.cls-49,.cls-50,.cls-52,.cls-54,.cls-56{fill:none;}.cls-2{clip-path:url(#clip-path);}.cls-3{clip-path:url(#clip-path-2);}.cls-4{opacity:0;}.cls-5{fill:#336;}.cls-6{fill:#fafeff;}.cls-7{opacity:0.5;}.cls-8{clip-path:url(#clip-path-3);}.cls-9{fill:#cff;}.cls-10{fill:#924dac;}.cls-11{fill:#fff;}.cls-12{fill:#a2d3f4;}.cls-13{fill:#1d5c7f;}.cls-14{opacity:0.33;}.cls-15{fill:#7ec2e8;}.cls-16{fill:#0b3e7a;}.cls-17{fill:#ffc69c;}.cls-18{opacity:0.58;}.cls-19{clip-path:url(#clip-path-4);}.cls-20{fill:#ffa076;}.cls-21{fill:#042333;}.cls-22{fill:#ffd5b8;}.cls-23{fill:#ff9369;}.cls-24{fill:#b8bbbc;}.cls-25{fill:#e5e5e5;}.cls-26{fill:#ea3b3b;}.cls-27{fill:#ffc05a;}.cls-28{fill:#960;}.cls-29{clip-path:url(#clip-path-5);}.cls-30{fill:#82450d;}.cls-31{opacity:0.57;}.cls-32{clip-path:url(#clip-path-6);}.cls-33{fill:#4f2703;}.cls-34{fill:#15aabf;}.cls-35{fill:#12b886;}.cls-36,.cls-45,.cls-49{stroke:#364fc7;}.cls-36,.cls-38,.cls-40,.cls-42,.cls-43,.cls-45,.cls-46,.cls-48,.cls-49,.cls-50,.cls-52,.cls-54,.cls-56{stroke-linecap:round;}.cls-36{stroke-width:0.33px;}.cls-37{fill:#e64980;}.cls-38{stroke:#a61e4d;}.cls-38,.cls-40,.cls-42,.cls-43,.cls-45,.cls-46,.cls-48,.cls-50,.cls-52,.cls-54,.cls-56{stroke-width:0.32px;}.cls-39{fill:#4c6ef5;}.cls-40{stroke:#1864ab;}.cls-41{fill:#82c91e;}.cls-42{stroke:#5c940d;}.cls-43{stroke:#0b7285;}.cls-44{fill:#228be6;}.cls-46{stroke:#087f5b;}.cls-47{fill:#7950f2;}.cls-48{stroke:#5f3dc4;}.cls-49{stroke-width:1.29px;}.cls-50{stroke:#924dac;}.cls-51{fill:#9b466f;}.cls-52{stroke:#9b466f;}.cls-53{fill:#e9ae2b;}.cls-54{stroke:#e9ae2b;}.cls-55{fill:#6d3435;}.cls-56{stroke:#6d3435;}.cls-57{fill:#369;}.cls-58{fill:#c06;}.cls-59{fill:#39c;}.cls-60{fill:#9b4a51;}.cls-61{fill:#999;}.cls-62{fill:#401c1c;}.cls-63{fill:#88a163;}</style><clipPath id="clip-path" transform="translate(-556.9 -426.66)"><rect class="cls-1" x="-218.99" y="92.48" width="4680" height="3120"/></clipPath><clipPath id="clip-path-2" transform="translate(-556.9 -426.66)"><rect class="cls-1" x="-446.92" y="51.93" width="4680" height="3120"/></clipPath><clipPath id="clip-path-3" transform="translate(-556.9 -426.66)"><rect class="cls-1" x="2821.87" y="510.43" width="595.83" height="1233.12"/></clipPath><clipPath id="clip-path-4" transform="translate(-556.9 -426.66)"><rect class="cls-1" x="1610.71" y="2284.7" width="143.04" height="105.59"/></clipPath><clipPath id="clip-path-5" transform="translate(-556.9 -426.66)"><rect class="cls-1" x="871.63" y="2352.61" width="142.98" height="105.85"/></clipPath><clipPath id="clip-path-6" transform="translate(-556.9 -426.66)"><rect class="cls-1" x="687" y="2495.31" width="2807.45" height="146.45"/></clipPath></defs><title>pic7</title><g class="cls-2"><g class="cls-3"><path class="cls-5" d="M3442.89,1856.66h-1845a64.49,64.49,0,0,1-64.48-64.51v-1301a64.49,64.49,0,0,1,64.48-64.51h1845a64.49,64.49,0,0,1,64.48,64.51v1301a64.49,64.49,0,0,1-64.48,64.51" transform="translate(-556.9 -426.66)"/><path class="cls-6" d="M3410.51,1820.18H1630.23a65.77,65.77,0,0,1-65.78-65.77V524.91a65.78,65.78,0,0,1,65.78-65.78H3410.51a65.78,65.78,0,0,1,65.77,65.78v1229.5a65.77,65.77,0,0,1-65.77,65.77" transform="translate(-556.9 -426.66)"/><g class="cls-7"><g class="cls-8"><path class="cls-9" d="M3367.88,1742.16H2871.69c-27.52,0-49.82-29.45-49.82-65.78V574.82c0-36.33,22.3-65.78,49.82-65.78h496.19c27.51,0,49.82,29.45,49.82,65.78V1676.38c0,36.33-22.31,65.78-49.82,65.78" transform="translate(-556.9 -426.66)"/></g></g><path class="cls-10" d="M2709.23,904.77H2465.37a25.48,25.48,0,0,1-25.48-25.48V606.59a25.48,25.48,0,0,1,25.48-25.48h243.86a25.48,25.48,0,0,1,25.48,25.48v272.7a25.48,25.48,0,0,1-25.48,25.48" transform="translate(-556.9 -426.66)"/><path class="cls-11" d="M2669,692.62H2494.16a4.5,4.5,0,0,1,0-9H2669a4.5,4.5,0,0,1,0,9" transform="translate(-556.9 -426.66)"/><path class="cls-11" d="M2669,747.44H2494.16a4.5,4.5,0,0,1,0-9H2669a4.5,4.5,0,0,1,0,9" transform="translate(-556.9 -426.66)"/><path class="cls-11" d="M2668.29,791.17H2493.5a4.5,4.5,0,0,1,0-9h174.79a4.5,4.5,0,0,1,0,9" transform="translate(-556.9 -426.66)"/><path class="cls-11" d="M3307.51,1769.15h-174.8a4.5,4.5,0,0,1,0-9h174.8a4.5,4.5,0,0,1,0,9" transform="translate(-556.9 -426.66)"/><path class="cls-12" d="M2489.37,1661.38H1977.86a2.5,2.5,0,1,1,0-5h511.51a2.5,2.5,0,0,1,0,5" transform="translate(-556.9 -426.66)"/><path class="cls-13" d="M2353,782.86a4.47,4.47,0,0,1-3.75-2" transform="translate(-556.9 -426.66)"/><g class="cls-14"><path class="cls-11" d="M1380.07,1308.86" transform="translate(-556.9 -426.66)"/></g><path class="cls-15" d="M956.49,1583.45C939,1583.45,916,1595,903,1621.79c-5.39,11.1-8.56,23.37-10.48,35.72,18.66-4.8,36.18-11.64,51.56-18.26,11.33-4.87,23-10.38,30.48-19.29,5.94-7.08,9.45-18.9,4.26-26.88-3.28-5-10.15-8.57-18.39-9.43a38,38,0,0,0-3.9-.2" transform="translate(-556.9 -426.66)"/><path class="cls-16" d="M1019.18,2202.73c51.33-14.12,127.74,2.51,181,4l194.74,5.29c60,1.63,132.84-15.38,183.66-44.64,2.64-1.51,5.61-3,8.59-2.38,4.36.91,6.53,5.7,8,9.89,19.83,55.61,37.1,112.09,53.84,168.69,8.54,28.86,16.93,57.77,25.48,86.63,5.26,17.77,24,52.45,20.25,70-3.42,0-6.79-.24-10.2-.4-7.38-.35-14.34.18-21.59.34-78.4,1.73-157,0-235.45,0H1056.33q-58,0-116,0c-42.13,0-71.15,14.47-76.24-26.79-10.31-83.83,68.75-246.85,155-270.61" transform="translate(-556.9 -426.66)"/><path class="cls-17" d="M2513.43,2434.08c-1.17-2.16-2.31-4.33-3.48-6.48a256.41,256.41,0,0,0-36.81-51.53,232,232,0,0,1,10.44,48.74c1.1,10.69.47,23.52-8.57,29.34-6.63,4.27-15.28,3-23,1.25-25.51-5.68-52.78-22.22-78.46-22.05-30.38.19-60.82-3.48-91.24-4.53q-31.34-1.09-62.67-2.52c-83.75-3.77-167.44-9-251.16-13.19q-40.08-2-80.17-3.71c-94.78-3.85-208.46-.07-277-78.39-35.79-40.91-49.59-96.69-54.21-150.84q-1.67-19.52-2.9-39.16c-3.59-56-5-112.54-6.83-168.34-2.69-83.7,49.89-110.35,127.82-106.62,47,2.25,123.94,18.42,133.17,72.77,10.29,60.48-36.57,179.11,13.63,227.2,9.27,8.87,21.94,13.06,34.21,16.81,71.7,21.93,146.42,32.45,219.94,46.31l153.34,28.92c48.72,9.19,97.76,21.66,147.73,17.17,67-5.62,138.72-15.26,194.69,30.88,20.93,17.26,40.4,38.78,52.39,63.28,11.12,22.72,13.78,56.87-3.8,77.6-8.05,9.48-23.09,13.84-33.35,6.8-11.77-8.08-11.57-25-14.7-38.93-3.74-16.61-13.62-31.08-23.29-45.09,8.73,13,11.37,29,13.61,44.42,1.19,8.18,2.31,16.57.56,24.65s-7,15.91-14.84,18.45c-8.43,2.72-17.83-1.28-24.13-7.51-4.56-4.51-7.88-10-11-15.7" transform="translate(-556.9 -426.66)"/><g class="cls-18"><g class="cls-19"><path class="cls-20" d="M1733.1,2323.74a117.51,117.51,0,0,1,9.51,12.69c7,10.76,12.12,22.71,11,33.68-5.24,50.77-95.7-7.69-118.42-29.07-6.34-6-22.43-19.38-24.28-27.05-1.58-6.55,7.2-14.63,11.62-18.16,12.49-10,31.91-13.55,50.81-9.47,23.08,5,44.45,19.52,59.77,37.38" transform="translate(-556.9 -426.66)"/></g></g><path class="cls-5" d="M1418.63,1492.56c9-20.24,24.47-37.49,48.17-50.73,55.33-30.92,117.53-25.42,167.82,12.46,78.33,59,105.62,165.11,135.71,253,32.87,96,78.87,186.73,108.88,284.36,20.28,66-32,91.18-85.51,114.38-29.55,12.82-60.82,23-92.86,27.14-30.4,3.91-59.13-.62-89.18,1.87-8.5-51.51-10.09-112-27-161.32-17.22-50.34-52.59-100.09-77.4-147.25-41.94-79.69-84.48-161.43-96.84-251.82-4.16-30.4-2.42-58.3,8.17-82.08" transform="translate(-556.9 -426.66)"/><path class="cls-11" d="M1600.52,2081.39a2.5,2.5,0,0,1-.74-4.88l1.46-.46c90.36-28.19,183.79-57.34,263.3-111.34a2.5,2.5,0,0,1,2.81,4.13c-80.13,54.42-173.92,83.69-264.62,112l-1.46.46a2.43,2.43,0,0,1-.75.11" transform="translate(-556.9 -426.66)"/><path class="cls-11" d="M1798.79,2097.54a2.51,2.51,0,0,1-2.34-1.6c-28.22-73.25-59-146.8-88.7-217.93-25-59.92-51-121.88-75.25-183.44-18.19-46.06-33.35-94-48-140.27-13-40.9-26.34-83.19-41.68-123.72a2.5,2.5,0,0,1,4.68-1.77c15.38,40.66,28.79,83,41.76,124,14.64,46.24,29.78,94,47.9,140,24.28,61.51,50.18,123.45,75.21,183.35,29.75,71.15,60.51,144.73,88.76,218a2.5,2.5,0,0,1-1.44,3.23,2.31,2.31,0,0,1-.89.17" transform="translate(-556.9 -426.66)"/><path class="cls-21" d="M1467.13,778.79c32.91-3.91,65.14-19.82,98.54-11.91,15.63,3.7,30.31,10.49,45.32,16.18,16,6.05,33,11.22,45.39,23,12.84,12.18,18.91,29.81,22.87,47.07,4.94,21.55,7.27,45.46-1.2,66.46-4.3,10.64-8.16,14.79-18.32,20.4a134.64,134.64,0,0,1-31.27,12.62c-12.33,3.19-25.49,4.44-37.37,9.2-10.41,4.16-19.17,14.83-30.2,16.66-9.24,1.54-17.82-4.7-24.93-10.84-9.75-8.42-19.21-17.41-30.49-23.61-19.57-10.74-48.61-14.69-55.68,11-7.79,28.23-23.16,56-20.12,86,1.86,18.36,21.55,48.14,12.86,65.29-8,15.81-40.48,27-56.25,30.61-8.17,1.86-16.83,2.52-24.85.13-8.68-2.59-16-8.52-22.41-14.87-21.4-21.06-40-49.21-37.84-79.15,3.09-43.61-1.43-86-2.47-129.46-1-42.84,12.29-87.15,50.81-110.44,35.27-21.32,78-19.62,117.61-24.32" transform="translate(-556.9 -426.66)"/><path d="M1332.19,908.73c-11.25-4.84-24-12.25-29.24-23.91-6.66-14.68,3.08-28.39,8.92-41.71,5.66-12.89,11.48-26,21.05-36.36,21-22.63,53.56-26.42,82.19-32,15.67-3.07,32.1.48,48.18.28,16.63-.21,33.47-2.37,48.88-8.92,1.54-.66,3.07-1.35,4.57-2.09,17.24-8.47,32.08-22.64,50.94-26.3,23-4.48,48.26,10.25,55.69,32.52.88,2.62,1.73,5.59,4.13,7,6.14,3.53,17.34-8.26,23.12-10.4a50.14,50.14,0,0,1,28.68-1.35C1711,773,1736,797.82,1736,831.21c0,30.35-12.83,52.48-31.32,75.25-17.79,21.92-43.91,38.07-71.18,45.11-12.54,3.24-25.91,4.52-38,9.35-10.58,4.24-19.49,15.08-30.7,16.94-9.39,1.57-18.12-4.78-25.34-11-9.91-8.57-19.53-17.71-31-24-10.43-5.73-23.63-7.94-35.48-7.91-11.09,0-18.18,7.13-29.6,7.67-8.46.4-16.83-1.66-25-3.87a641.67,641.67,0,0,1-86.23-30" transform="translate(-556.9 -426.66)"/><path class="cls-22" d="M1264.36,1466.21c-7.06-8-14.23-16.49-17.62-27-5.41-16.78-.19-35.37,5.34-52.31,28.49-87.3,44.33-174.23,66.17-263.07,1.92-7.79,2.67-12.6-.3-19.17-.45-1-1-2-1.61-3.11-3.28-5.72-7.83-11.08-10.34-17-6-14.07-11.69-28.65-12.21-43.94s4.94-31.6,17.54-40.9,30.75-9.91,45.31-3.94,26,17.62,34.49,30.57c3.78,0,5.71-4.36,6.62-7.94q11.28-44.34,22.42-88.72c5.88-23.52,50.42-8.35,64.91-4.77,22.06,5.46,43.52,11.41,66.1,14.1a727.36,727.36,0,0,0,76.94,5.07c2.54,0-33.92,246.19-39.28,266.51-4.26,16.14-10.34,33.43-24.74,42.53-15.38,9.71-34,6.57-50.85,3.76-5.66-1-18-6.08-23.1-2.64-5.78,3.93-8.82,27.48-11,34.31q-8.87,61.94-17.71,123.86c-4.15,29-7.77,58.19-12.4,87.14-3,18.91-7.59,21.25-28.1,22.29a120.06,120.06,0,0,1-59-12.1c-8.7-4.3-16.94-9.69-26.15-12.73-13.75-4.55-25-.22-38.53-6.34a99.87,99.87,0,0,1-33-24.51" transform="translate(-556.9 -426.66)"/><path class="cls-23" d="M1334.12,1026c9.14,7.27,9.62,20.85,7.16,32.21-1.43,6.6-5,14.27-11.88,14.8-7.09.55-13.84-5.49-16.64-11.52-1.49-3.19-2.27-7.07-.91-10.46,2.67-6.7,11.4-3.17,14.41-9.41,1.71-3.55-.48-7.87-3.36-10.29-1.45-1.22-3.2-2.37-3.65-4.31-2.29-9.93,12.39-3,14.87-1" transform="translate(-556.9 -426.66)"/><path class="cls-23" d="M1575.45,1100.85c.4-1.17.81-2.34,1.23-3.5.93-2.61,2.44-13.37,6-13.23,3.29.14,3.27,6.64,3.39,9.05.43,9,1.8,17.89,2.07,26.84a13.41,13.41,0,0,1-1,6.33c-2.25,4.53-7.5,5.14-11.65,4.18-6.37-1.47-7.24-6.79-5.46-12.79q2.52-8.51,5.42-16.88" transform="translate(-556.9 -426.66)"/><path d="M1523.51,1052.83a11,11,0,0,1,12.22-1c5,2.66,6.76,8.78,5.24,14.44-1.42,5.3-5.21,9.27-10.51,9.24-11.79-.06-16.93-14.89-7-22.65" transform="translate(-556.9 -426.66)"/><path d="M1530.51,1077h-.06a13.59,13.59,0,0,1-13-9.27,14.38,14.38,0,0,1,5.13-16.07,12.52,12.52,0,0,1,13.85-1.17c5.31,2.82,7.78,9.46,6,16.16-1.71,6.39-6.27,10.35-11.91,10.35m-6.08-23a11.27,11.27,0,0,0-4.13,12.73,10.52,10.52,0,0,0,10.17,7.24h0c5,0,8-4.19,9-8.13,1.44-5.33-.41-10.57-4.49-12.72a9.45,9.45,0,0,0-10.6.88" transform="translate(-556.9 -426.66)"/><path d="M1601,1064.31a10.53,10.53,0,0,1,11.68-1c4.8,2.54,6.45,8.39,5,13.8-1.35,5.06-5,8.85-10,8.83-11.26-.06-16.18-14.23-6.64-21.65" transform="translate(-556.9 -426.66)"/><path d="M1607.7,1087.46h-.06a13.05,13.05,0,0,1-12.47-8.9,13.8,13.8,0,0,1,4.92-15.43,12,12,0,0,1,13.3-1.12c5.11,2.7,7.48,9.08,5.75,15.51-1.64,6.13-6,9.94-11.44,9.94m-5.77-22a10.68,10.68,0,0,0-3.92,12.09,10,10,0,0,0,9.65,6.87h0c4.78,0,7.54-4,8.55-7.72,1.35-5.07-.4-10-4.26-12.08a9,9,0,0,0-10.06.84" transform="translate(-556.9 -426.66)"/><path d="M1479.27,1021.39a16.7,16.7,0,0,1,4.63-8.06c4-4,9.66-5.55,14.93-6.4,12.38-2,26.53-3.31,38.7-.38,9.12,2.19,21,4.73,25.94,14.34,3.86,7.52-.15,16.14-8.27,16.73-3.58.25-7.09-.85-10.56-1.77-12.52-3.33-25.47-4.34-38.37-4.63-6.13-.14-29.37,2.94-27-9.83" transform="translate(-556.9 -426.66)"/><path d="M1585,1032.61c-.34-3.22,1.27-6.52,5.84-8.77,3.6-1.77,7.93-2.35,11.81-2.94a47.52,47.52,0,0,1,25.15,3.38c5.17,2.27,16.15,11.92,10.92,18.9a8.8,8.8,0,0,1-6.9,3.23c-5.78.15-12-1.77-17.86-2.09-6.46-.36-13-.39-19.29-1.85-5.1-1.16-9.21-5.43-9.67-9.86" transform="translate(-556.9 -426.66)"/><path d="M1644.1,1489.84c21.16,39.81,26.91,89.89,28.23,133.35,2.41,79.44-13.12,157.88-18.24,236.91-5.59,86.21-13.15,172.12-18.82,258.23q-2.62,39.71-4.59,79.49c-.77,15.86-1.87,32.74-11.24,45.57-12.36,16.94-35.13,21.76-55.79,25.34-109.79,19-226.44,27.19-339.59,18.74-71.88-5.37-252.54-4.46-263.57-104.58a2891.93,2891.93,0,0,1-14.92-435.75q4.56-111.15,17.67-221.72c6.82-57.75,14.8-117.19,75.88-142.29,34.72-14.26,72.87-17.82,110.09-17.7,29.2.08,78.69,12.76,96.33-19.87,3.86-7.13,4.47-15.5,5.42-23.56.9-7.58,2.22-15.25,5.71-22s9.46-12.64,16.9-14.34c3.93-.9,8-.61,12.06-.31l52,3.87c13.3,1,26.63,2,39.81,4,15.13,2.36,30,6.11,44.86,9.86l48.21,12.18a26.7,26.7,0,0,1,7.47,2.7,19,19,0,0,1,6,6.39c7.62,12.33,6.15,28,5.4,42.44-.51,10.15-.4,21.16,3.89,30.58,5.26,11.56,15.77,10.44,27.1,13.06,25.67,5.93,51.39,13.32,74.31,26.65,22.07,12.84,38,31.31,49.35,52.76" transform="translate(-556.9 -426.66)"/><path class="cls-5" d="M1247.67,2039c-69.65-6-206.85-12-301.62-42.52q4.2,93.38,14.44,186.37c11,100.12,191.69,99.21,263.57,104.58,113.15,8.45,229.8.24,339.59-18.74,20.66-3.58,43.43-8.4,55.79-25.34,9.37-12.83,10.47-29.71,11.24-45.57q1.9-39.8,4.59-79.49,2.37-36.07,5.12-72.1c-128.87,5.75-262.06,4.16-392.72-7.19" transform="translate(-556.9 -426.66)"/><path class="cls-5" d="M1224,1798.21c-64.29-5.58-186.13-11.07-279-35.89q-.78,21.66-1.23,43.35-6.62-1.26-13.08-2.65,1.51,117.12,12.49,233.87c96.15,25.87,233.48,25.11,303.34,27.76,131.06,5,264.17,0,392.6-12q.08-3.19.17-6.39l1.12,0c4.63-62,9.67-124,13.7-186.13,1.23-19,3.06-37.93,5.1-56.87-141.92,8.15-290.11,7.58-435.17-5" transform="translate(-556.9 -426.66)"/><path class="cls-5" d="M1672.33,1623.19c-1.32-43.46-7.07-93.55-28.23-133.35-11.4-21.46-27.28-39.92-49.35-52.76-22.92-13.33-48.64-20.72-74.31-26.65-11.33-2.62-21.84-1.5-27.1-13-4.29-9.43-4.4-20.44-3.89-30.59.75-14.49,2.22-30.11-5.4-42.44a19.06,19.06,0,0,0-6-6.39,26.88,26.88,0,0,0-7.48-2.7l-48.21-12.18c-14.85-3.75-29.73-7.5-44.86-9.87-13.18-2-26.51-3-39.81-4l-52-3.87c-4-.3-8.13-.6-12.07.31-7.44,1.7-13.42,7.56-16.9,14.34s-4.81,14.46-5.71,22c-1,8.06-1.56,16.43-5.42,23.56-17.64,32.63-67.12,20-96.33,19.86-37.22-.11-75.37,3.45-110.09,17.71-61.08,25.09-69.06,84.54-75.87,142.29q-13.05,110.47-17.68,221.72-.32,7.59-.59,15.18c92.91,24.82,214.75,30.31,279,35.89,145.06,12.6,293.25,13.17,435.17,5,6.45-59.9,15-119.68,13.14-180" transform="translate(-556.9 -426.66)"/><path d="M1325.48,1074.45a12,12,0,0,1-8.29-3.47c-4.62-4.29-6.88-11.57-6.73-16.53.18-5.66,3-9.63,8-11.18,5.85-1.82,14,.18,19.66,4.31.4-7.71-1-15.94-4.93-21a13.89,13.89,0,0,0-11.5-5.34,2.5,2.5,0,0,1,0-5h0a18.92,18.92,0,0,1,15.44,7.26c5.77,7.38,6.89,19.32,5.54,29a2.53,2.53,0,0,1-.31,1.9c-.17,1-.38,1.94-.6,2.86a30,30,0,0,1-4.52,10.63,15.33,15.33,0,0,1-10.53,6.5c-.4,0-.8.06-1.19.06m-2.32-26.85a10.89,10.89,0,0,0-3.26.45c-2.88.9-4.33,3-4.44,6.55-.12,3.75,1.64,9.48,5.13,12.72a7,7,0,0,0,5.56,2.1,10.35,10.35,0,0,0,7-4.48,24.53,24.53,0,0,0,3.7-8.88c.2-.79.37-1.61.53-2.45-3.26-3.53-9.34-6-14.23-6" transform="translate(-556.9 -426.66)"/><path d="M1579.83,1134.9a25.68,25.68,0,0,1-10.73-2.9,2.5,2.5,0,0,1,2.13-4.52c5.91,2.8,10.09,3.19,12.43,1.17s6.8-10.31-3.12-42.89a2.5,2.5,0,0,1,4.79-1.45c7.91,26,8.45,42.21,1.6,48.12a10.48,10.48,0,0,1-7.1,2.47" transform="translate(-556.9 -426.66)"/><path class="cls-23" d="M1574.91,1164a23,23,0,0,1-11-.12,23.56,23.56,0,0,1-15.47-13.76c-.31-.77-1.33-5.57-2.29-5.65,2.56.22,5.11.55,7.65.88l28.66,3.73c1.5.19,6,.55,6.76,2.24,1.93,4.44-6,9.34-9.2,10.87a23.53,23.53,0,0,1-5.11,1.81" transform="translate(-556.9 -426.66)"/><path d="M1577.46,1155.86c-13.52,0-28.73-6.48-37.58-11.69a2.5,2.5,0,0,1,2.53-4.31c10.77,6.33,34.64,16.12,47.82,7.83a2.5,2.5,0,1,1,2.66,4.23c-4.46,2.81-9.8,3.94-15.43,3.94" transform="translate(-556.9 -426.66)"/><path class="cls-24" d="M1950.22,2368l880.91-1.39a83.11,83.11,0,0,0,83-83.23l-.92-582.59a83.11,83.11,0,0,0-83.24-83l-880.9,1.39a83.09,83.09,0,0,0-83,83.23l.92,582.59a83.09,83.09,0,0,0,83.23,83" transform="translate(-556.9 -426.66)"/><path class="cls-24" d="M1529.55,2494.35l1157.77-1.83a32.35,32.35,0,0,0,32.3-32.4l0-18.34a32.35,32.35,0,0,0-32.4-32.3l-1157.77,1.83a32.35,32.35,0,0,0-32.3,32.4l0,18.34a32.35,32.35,0,0,0,32.4,32.3" transform="translate(-556.9 -426.66)"/><path class="cls-25" d="M1836.34,2493.86l851-1.34a32.35,32.35,0,0,0,32.3-32.4l0-18.34a32.35,32.35,0,0,0-32.4-32.3l-851,1.34a32.36,32.36,0,0,0-32.3,32.4l0,18.35a32.35,32.35,0,0,0,32.4,32.29" transform="translate(-556.9 -426.66)"/><path class="cls-24" d="M2183.6,2403l338.85-.54a23.33,23.33,0,0,0,23.3-23.37v-2.76a23.34,23.34,0,0,0-23.38-23.29l-338.85.53a23.33,23.33,0,0,0-23.29,23.37v2.76a23.33,23.33,0,0,0,23.37,23.3" transform="translate(-556.9 -426.66)"/><path class="cls-26" d="M2059.34,2442.93l24.22-10.22a21.69,21.69,0,0,0,11.54-28.42l-23.25-55.09a21.69,21.69,0,0,0-28.42-11.55l-24.22,10.22a21.7,21.7,0,0,0-11.55,28.42l23.26,55.1a21.7,21.7,0,0,0,28.42,11.54" transform="translate(-556.9 -426.66)"/><path class="cls-27" d="M1590.41,2647.81c-1.07,2.11-10.06,3.91-12.31,4.59a115.24,115.24,0,0,1-13.1,3.06c-14.67,2.54-29.66,2.45-44.49,3l-48.25,1.65c-6.25.21-10.19-1.46-14.54-5.83-6.6-10.44,9.64-26.61,15.75-33.32,11.19-12.28,22.86-24.12,34.88-35.59,13.45-12.82,27.69-24.34,45.46-30.56,22.69,8.15,42.19,27.29,48.8,50.47,1.64,5.75,2.58,11.94.89,17.67a40.48,40.48,0,0,1-2.87,6.63c-2.69,5.32-7.53,13-10.22,18.27" transform="translate(-556.9 -426.66)"/><path class="cls-28" d="M2050.94,2440.41l-37.12-82.92a5.1,5.1,0,0,0-6.69-2.61L1541,2560.22a5,5,0,0,0-2.54,6.67l37.12,82.93a5.1,5.1,0,0,0,6.69,2.61l466.18-205.34a5,5,0,0,0,2.54-6.68" transform="translate(-556.9 -426.66)"/><path class="cls-28" d="M2031.71,2397.1l-19.2-42.55c-.59-1.32-3.13-1.47-5.68-.35l-465.88,206c-2.55,1.13-4.13,3.11-3.54,4.42l19.19,42.56c.59,1.31,3.14,1.46,5.69.34l465.88-206c2.54-1.12,4.13-3.1,3.54-4.42" transform="translate(-556.9 -426.66)"/><path class="cls-27" d="M1469.12,2625.37a73.16,73.16,0,0,0-6.93,9c-3.65,5.64-8.68,13.17-4.47,19.82,3.74,5.92,10.53,5.91,16.77,6.06q6.09.14,12.19-.09l-15.85-36.66c-.57.6-1.15,1.21-1.71,1.83" transform="translate(-556.9 -426.66)"/><path class="cls-22" d="M822.14,2210c-3.45-56-4.73-112.62-6.38-168.46-2.47-83.76,50.22-110.28,128.18-106.33,47.06,2.37,124,18.76,133.06,73.17,10.13,60.54-37.08,179.12,13,227.37,9.24,8.9,21.91,13.13,34.18,16.92,79.57,24.57,160.92,39.39,242.93,53,37.67,6.27,75.34,12.54,113.06,18.51,126.1,19.92,311.79,10.16,400.8,119.71,36.26,44.64,46.23,109.17,25.12,162.67-3.79,9.58-8.9,19.28-17.67,24.71-10,6.18-27.41,4.21-30-9.28a29.47,29.47,0,0,1,.55-11.29c3.06-15.21,9.44-29.46,9.53-45.18a116.08,116.08,0,0,0-8-43.73c-.39-.95-1.44-4.72-3-4.17-2.78,1,.38,13.08.39,15.39a152.59,152.59,0,0,1-1.58,21.35c-3.64,27.13-12.57,68.09-42.93,77.14-10.47,3.12-23-5.18-23.65-16.32-.26-4.31,1.14-8.53,2.57-12.6,10.57-30.14,23.4-60.13,25.64-92a56.82,56.82,0,0,0,.13-6.26c-.9.15-1.81.3-2.74.43-.06,2.23,0,4.47,0,6.69-.12,13.88-3.57,28.27-7.33,41.47-4.44,15.58-11.92,30.73-20.46,44.44-4.44,7.13-9.54,14.15-16.65,18.64-6.9,4.35-16.46,6.05-23.81,1.75-8-4.66-8.17-15-7.24-23.34,2-17.72,8-34.69,12.74-51.9,3.37-12.36,6-25.19,6-37.92-1.86-.1-3.57-.19-5.12-.25,0,.8,0,1.6,0,2.38a134.72,134.72,0,0,1-13.68,59.94c-.54,1.12-1.12,2.24-1.73,3.35-4.78,8.74-11.47,16.94-21,19.17-2.92.68-6.26.66-8.62-1.19-1.84-1.44-2.76-3.74-3.45-6-4.69-15.33-1.36-32.12-6.58-47.29-4.46-12.94-18.7-21.19-31.08-25-9.41-2.91-19.12-5.18-28.86-7.32-160-2.68-322.23-16-482.73-22.94-94.83-4.12-208.59-.64-276.93-79.19-35.7-41-49.36-96.88-53.83-151.08q-1.61-19.53-2.8-39.19" transform="translate(-556.9 -426.66)"/><g class="cls-18"><g class="cls-29"><path class="cls-20" d="M994.06,2391.87a119,119,0,0,1,9.48,12.73c6.94,10.78,12.06,22.75,10.9,33.73-5.38,50.78-95.73-7.95-118.41-29.42-6.32-6-22.39-19.44-24.22-27.13-1.56-6.56,7.24-14.61,11.68-18.14,12.52-9.95,32-13.46,50.86-9.34,23.08,5,44.43,19.66,59.71,37.57" transform="translate(-556.9 -426.66)"/></g></g><path class="cls-5" d="M1127.52,1420.69c-17.71-17.42-41.56-30.3-73.25-37.16-56.87-12.34-110.18-1.4-153,38.58-47.6,44.43-60.94,119-77.34,180.06-23.64,88-37.53,177.32-45.79,267.94-7,77.26-19.28,161.05,4.24,236.68.94,3,2.12,6.21,4.91,8.33s6.51,2.74,10.07,3.31l79.36,12.6c44,7,194.41,40.31,205.62-15.71l69.39-346.79c17.67-88.31,35.26-178.76,15.56-270-6.62-30.67-19-57.41-39.77-77.87" transform="translate(-556.9 -426.66)"/><path class="cls-11" d="M896.13,2135.77h-.07a2.49,2.49,0,0,1-2.43-2.56c3.07-126.42,6.24-257.14,22.63-384.79,18.51-144.21,51.49-265.42,100.84-370.57a2.5,2.5,0,0,1,4.52,2.12c-49.12,104.67-82,225.4-100.4,369.08-16.36,127.4-19.53,258-22.6,384.28a2.49,2.49,0,0,1-2.49,2.44" transform="translate(-556.9 -426.66)"/><path class="cls-11" d="M1049.41,2081.55a817.53,817.53,0,0,1-212.79-28.81c-23.94-6.5-47.1-13.76-68.86-21.56a2.5,2.5,0,0,1,1.69-4.71c21.63,7.76,44.67,15,68.48,21.45,86.76,23.58,177.56,32.87,262.61,26.84a2.5,2.5,0,1,1,.35,5c-17,1.2-34.15,1.8-51.48,1.8" transform="translate(-556.9 -426.66)"/><path class="cls-21" d="M1176.21,613" transform="translate(-556.9 -426.66)"/><path class="cls-30" d="M3421.6,2812.63H759.85A72.84,72.84,0,0,1,687,2739.78V2591.32a72.84,72.84,0,0,1,72.85-72.85H3421.6a72.85,72.85,0,0,1,72.86,72.85v148.46a72.85,72.85,0,0,1-72.86,72.85" transform="translate(-556.9 -426.66)"/><g class="cls-31"><g class="cls-32"><path class="cls-33" d="M3465.3,2641.76H716.15A29.16,29.16,0,0,1,687,2612.6v-88.13a29.15,29.15,0,0,1,29.15-29.16H3465.3a29.15,29.15,0,0,1,29.15,29.16v88.13a29.16,29.16,0,0,1-29.15,29.16" transform="translate(-556.9 -426.66)"/></g></g><path class="cls-33" d="M2117.8,2757.49c-30,0-59-1-87.34-2.89-95.53-6.5-184.09-24.49-263.21-53.48-16.29-6-32.64-12.56-48.45-18.94-31-12.5-63-25.42-95.86-34.12-111.51-29.56-229.94-11.12-344.46,6.71-18.15,2.82-36.9,5.74-55.25,8.41A2467.27,2467.27,0,0,1,686.81,2682a2.5,2.5,0,0,1,.37-5,2461.67,2461.67,0,0,0,535.33-18.75c18.32-2.66,37.07-5.58,55.2-8.4,115-17.91,234-36.43,346.51-6.61,33.15,8.79,65.33,21.77,96.45,34.32,15.77,6.36,32.09,12.94,48.31,18.89,78.67,28.82,166.76,46.72,261.82,53.18,82,5.57,169.9,3.08,268.69-7.63,53.49-5.8,107.26-14.87,159.27-23.63,125-21.07,254.23-42.85,385.48-19.73,17.42,3.06,34.92,7,51.85,10.83,20.64,4.66,42,9.48,63.23,12.7,50.76,7.71,103.28,6.72,154.07,5.77l8.8-.17c121.51-2.21,244.71-1.53,366.17,2.05a2.5,2.5,0,1,1-.15,5c-121.38-3.58-244.5-4.26-365.93-2.05l-8.79.16c-51,1-103.74,2-154.92-5.81-21.43-3.26-42.86-8.09-63.58-12.77-16.87-3.81-34.32-7.74-51.62-10.79-130.39-23-259.21-1.25-383.78,19.74-52.08,8.78-105.93,17.85-159.56,23.67-65,7-125.23,10.54-182.23,10.54" transform="translate(-556.9 -426.66)"/><path class="cls-33" d="M1855,2809.81h-.07c-62.6-1.86-121.18-25.13-177.84-47.64-25-9.93-50.86-20.2-76.71-28.49A605.05,605.05,0,0,0,1318,2713.25c-186.35,30.83-381,24.29-569.23,18q-30-1-60-2a2.5,2.5,0,1,1,.16-5q29.91.94,60,2c188,6.31,382.38,12.84,568.25-17.92a610.21,610.21,0,0,1,284.7,20.61c26,8.34,52,18.64,77,28.6,56.25,22.35,114.42,45.46,176.14,47.29a2.5,2.5,0,0,1-.08,5" transform="translate(-556.9 -426.66)"/><path class="cls-33" d="M1627.7,2809.81a2.61,2.61,0,0,1-.48,0L1500,2785.32c-28.92-5.56-58.82-11.31-88.89-13.4-37.88-2.63-76.36.68-105.66,3.85a1401.57,1401.57,0,0,0-169.3,28.93,2.5,2.5,0,0,1-1.14-4.87,1405.6,1405.6,0,0,1,169.9-29c29.5-3.2,68.27-6.52,106.55-3.86,30.37,2.11,60.42,7.88,89.48,13.47l127.21,24.44a2.5,2.5,0,0,1-.47,5" transform="translate(-556.9 -426.66)"/><path class="cls-33" d="M2217.68,2696.29c-47.38,0-96.67-5.05-148.23-15.12-62.07-12.13-126.51-30.6-208.93-59.91-13.3-4.73-26.81-9.18-41.11-13.9-48.16-15.88-98-32.3-138.17-59.26A2.5,2.5,0,1,1,1684,2544c39.63,26.58,89.1,42.89,137,58.67,14.33,4.72,27.86,9.18,41.22,13.93,82.18,29.22,146.39,47.63,208.21,59.71,143.84,28.1,270,16.86,385.53-34.37,18.19-8.06,35.68-18.35,52.6-28.3,29.32-17.25,59.63-35.08,94.81-42.13a2.5,2.5,0,1,1,1,4.9c-34.35,6.89-64.3,24.5-93.26,41.54-17,10-34.66,20.38-53.11,28.56-75.07,33.28-154.52,49.83-240.28,49.83" transform="translate(-556.9 -426.66)"/><path class="cls-33" d="M2998,2810.76a2.37,2.37,0,0,1-.83-.14c-104.87-37.14-194.14-55.84-272.93-57.18-97.94-1.68-189.85,32.44-235.93,52.91a2.5,2.5,0,1,1-2-4.57c46.46-20.64,139.12-55,238.05-53.34,79.33,1.35,169.12,20.15,274.51,57.47a2.5,2.5,0,0,1-.84,4.85" transform="translate(-556.9 -426.66)"/><path class="cls-33" d="M3282.3,2669.91c-66.89,0-133.79-4.93-196.28-28.35-21-7.88-42.39-18.15-65.33-31.4a583.85,583.85,0,0,1-65.07-43.7,2.5,2.5,0,0,1,3.07-3.95,577.46,577.46,0,0,0,64.51,43.32c22.69,13.11,43.81,23.27,64.58,31.05,84.45,31.65,177.59,29.14,267.66,26.71,45.82-1.23,93.2-2.51,139.19.66a2.5,2.5,0,1,1-.35,5c-45.74-3.16-93-1.88-138.71-.65-24.27.66-48.77,1.32-73.27,1.32" transform="translate(-556.9 -426.66)"/><path class="cls-30" d="M3580.38,2579.61H594.65a37.75,37.75,0,0,1-37.75-37.75v-12.34a37.75,37.75,0,0,1,37.75-37.75H3580.38a37.75,37.75,0,0,1,37.75,37.75v12.34a37.75,37.75,0,0,1-37.75,37.75" transform="translate(-556.9 -426.66)"/><path class="cls-34" d="M2709.23,1703.77H2465.37a25.48,25.48,0,0,1-25.48-25.48v-272.7a25.48,25.48,0,0,1,25.48-25.48h243.86a25.48,25.48,0,0,1,25.48,25.48v272.7a25.48,25.48,0,0,1-25.48,25.48" transform="translate(-556.9 -426.66)"/><path class="cls-11" d="M2669,1491.62H2494.16a4.5,4.5,0,0,1,0-9H2669a4.5,4.5,0,0,1,0,9" transform="translate(-556.9 -426.66)"/><path class="cls-11" d="M2669,1546.44H2494.16a4.5,4.5,0,0,1,0-9H2669a4.5,4.5,0,0,1,0,9" transform="translate(-556.9 -426.66)"/><path class="cls-11" d="M2668.29,1590.17H2493.5a4.5,4.5,0,0,1,0-9h174.79a4.5,4.5,0,0,1,0,9" transform="translate(-556.9 -426.66)"/><path class="cls-35" d="M2709.23,1304.27H2465.37a25.48,25.48,0,0,1-25.48-25.48v-272.7a25.48,25.48,0,0,1,25.48-25.48h243.86a25.48,25.48,0,0,1,25.48,25.48v272.7a25.48,25.48,0,0,1-25.48,25.48" transform="translate(-556.9 -426.66)"/><path class="cls-11" d="M2669,1092.12H2494.16a4.5,4.5,0,0,1,0-9H2669a4.5,4.5,0,0,1,0,9" transform="translate(-556.9 -426.66)"/><path class="cls-11" d="M2669,1146.94H2494.16a4.5,4.5,0,0,1,0-9H2669a4.5,4.5,0,0,1,0,9" transform="translate(-556.9 -426.66)"/><path class="cls-11" d="M2668.29,1190.67H2493.5a4.5,4.5,0,0,1,0-9h174.79a4.5,4.5,0,0,1,0,9" transform="translate(-556.9 -426.66)"/><path class="cls-25" d="M1972.46,2368l880.91-1.4a83.09,83.09,0,0,0,83-83.23l-.92-582.58a83.11,83.11,0,0,0-83.23-83l-880.91,1.39a83.11,83.11,0,0,0-83,83.24l.92,582.58a83.11,83.11,0,0,0,83.23,83" transform="translate(-556.9 -426.66)"/><path class="cls-24" d="M2520.37,1960.31a66.13,66.13,0,1,1-66.23-66,66.12,66.12,0,0,1,66.23,66" transform="translate(-556.9 -426.66)"/></g></g><path class="cls-36" d="M2167.28,1216.16c9.93,1.13,16.28,1.5,28.73,3.89" transform="translate(-556.9 -426.66)"/><path class="cls-36" d="M2295.07,989.32c9.07,1.22,21.47,1.75,26.08,3.65" transform="translate(-556.9 -426.66)"/><path class="cls-37" d="M2025.33,1058.1a36,36,0,1,0,5.06,4.65" transform="translate(-556.9 -426.66)"/><path class="cls-38" d="M2025.33,1058.1a36,36,0,1,0,5.06,4.65" transform="translate(-556.9 -426.66)"/><path class="cls-39" d="M2317.17,750.74a35.9,35.9,0,1,0,5.06,4.65" transform="translate(-556.9 -426.66)"/><path class="cls-40" d="M2317.17,750.74a35.9,35.9,0,1,0,5.06,4.65" transform="translate(-556.9 -426.66)"/><path class="cls-41" d="M2237,1188a36.78,36.78,0,1,0,3,2.5" transform="translate(-556.9 -426.66)"/><path class="cls-42" d="M2237,1188a36.78,36.78,0,1,0,3,2.5" transform="translate(-556.9 -426.66)"/><path class="cls-34" d="M2354.28,926.06a39.82,39.82,0,0,1,14.07,18.53,37.76,37.76,0,0,1-.14,22.85,39.77,39.77,0,0,1-14.3,18.38,40.42,40.42,0,0,1-45.73-.5,39.69,39.69,0,0,1-13.85-18.68,37.69,37.69,0,0,1,.42-22.85,40,40,0,0,1,14.51-18.23,40.47,40.47,0,0,1,45.73,1" transform="translate(-556.9 -426.66)"/><path class="cls-43" d="M2354.28,926.06a39.82,39.82,0,0,1,14.07,18.53,37.76,37.76,0,0,1-.14,22.85,39.77,39.77,0,0,1-14.3,18.38,40.42,40.42,0,0,1-45.73-.5,39.69,39.69,0,0,1-13.85-18.68,37.69,37.69,0,0,1,.42-22.85,40,40,0,0,1,14.51-18.23,40.47,40.47,0,0,1,45.73,1" transform="translate(-556.9 -426.66)"/><path class="cls-44" d="M1853.46,1223.85a40.23,40.23,0,0,1,13.71,18.89,39.61,39.61,0,0,1-.26,23.22,40.13,40.13,0,0,1-14.13,18.58,38.19,38.19,0,0,1-44.7-1,40.17,40.17,0,0,1-13.29-19.18,39.76,39.76,0,0,1,.79-23.21,40.25,40.25,0,0,1,14.53-18.27,38.23,38.23,0,0,1,44.68,1.95" transform="translate(-556.9 -426.66)"/><path class="cls-45" d="M1853.46,1223.85a40.23,40.23,0,0,1,13.71,18.89,39.61,39.61,0,0,1-.26,23.22,40.13,40.13,0,0,1-14.13,18.58,38.19,38.19,0,0,1-44.7-1,40.17,40.17,0,0,1-13.29-19.18,39.76,39.76,0,0,1,.79-23.21,40.25,40.25,0,0,1,14.53-18.27,38.23,38.23,0,0,1,44.68,1.95" transform="translate(-556.9 -426.66)"/><path class="cls-35" d="M2208.64,892.25a38.11,38.11,0,0,1,12.86,18.69,37.65,37.65,0,0,1-1.23,22.56,38.3,38.3,0,0,1-14.8,17.23,36.27,36.27,0,0,1-43.16-4.57,35.08,35.08,0,0,1-7.11-42.25,38.65,38.65,0,0,1,16.6-15.57,39.27,39.27,0,0,1,22.76-2.5,38.82,38.82,0,0,1,19.65,11.6" transform="translate(-556.9 -426.66)"/><path class="cls-46" d="M2208.64,892.25a38.11,38.11,0,0,1,12.86,18.69,37.65,37.65,0,0,1-1.23,22.56,38.3,38.3,0,0,1-14.8,17.23,36.27,36.27,0,0,1-43.16-4.57,35.08,35.08,0,0,1-7.11-42.25,38.65,38.65,0,0,1,16.6-15.57,39.27,39.27,0,0,1,22.76-2.5,38.82,38.82,0,0,1,19.65,11.6" transform="translate(-556.9 -426.66)"/><path class="cls-47" d="M1809.12,1070.71a37.55,37.55,0,1,0,1.9,1.49" transform="translate(-556.9 -426.66)"/><path class="cls-48" d="M1809.12,1070.71a37.55,37.55,0,1,0,1.9,1.49" transform="translate(-556.9 -426.66)"/><path class="cls-49" d="M2031,1054.14c20.21-20.43,100.61-100.9,120.46-120.7m-121.38,122.81c20.05-19.82,100.22-101.38,120.59-121.83" transform="translate(-556.9 -426.66)"/><path class="cls-49" d="M2137.12,961.28c3.35-10.74,10.38-16.75,14.67-25.34m-13.22,24c4.06-7.17,7.1-17.1,11.74-26.18" transform="translate(-556.9 -426.66)"/><path class="cls-49" d="M2123,947.28c7.94-6.43,19.43-8,28.82-11.34m-27.36,10c8.56-2.66,16.2-8,25.88-12.19" transform="translate(-556.9 -426.66)"/><path class="cls-49" d="M2036.79,1111.42c23.45,16,117.61,79.24,141,94.73m-142.44-95.39c23.32,15.69,118.4,78.14,141.91,93.89" transform="translate(-556.9 -426.66)"/><path class="cls-49" d="M2150.12,1199.12c9.85,1.11,16.14,1.48,28.48,3.84m-30-4.2c7.21.71,11.73,2,29,6" transform="translate(-556.9 -426.66)"/><path class="cls-49" d="M2161.11,1182.53c6.21,6.53,8.9,12.33,17.49,20.43m-19-20.78c4.73,4.28,6.92,9.06,18,22.62" transform="translate(-556.9 -426.66)"/><path class="cls-49" d="M2191.85,879.54c11.5-12.82,59-63.59,70.44-76.33m-68.65,75.17c11.34-13.17,56.54-64,68.11-76.84" transform="translate(-556.9 -426.66)"/><path class="cls-49" d="M2250.53,829.77c5.55-12.5,9.29-19.87,13.1-29.48m-13,29.21c3-6.64,5.62-11.74,11.92-28.75" transform="translate(-556.9 -426.66)"/><path class="cls-49" d="M2235.68,816.51c11.06-7.54,20.25-10,28-16.22m-27.83,16c6-3.72,11.8-6,26.76-15.49" transform="translate(-556.9 -426.66)"/><path class="cls-49" d="M2223.35,935.71c11.49,2.51,58.87,12.63,70.6,15.39M2225,935c11.25,3.19,56.57,14.87,67.86,17.44" transform="translate(-556.9 -426.66)"/><path class="cls-49" d="M2265,955.06c8.95-1.22,21.27-3.13,25.9-3.15m-26.5,3.35a140.3,140.3,0,0,0,27.67-3.56" transform="translate(-556.9 -426.66)"/><path class="cls-49" d="M2269.76,935.74c7.4,5.7,18,10.74,21.16,16.17m-21.74-16c8.47,6.66,17.93,12,22.91,15.77" transform="translate(-556.9 -426.66)"/><path class="cls-49" d="M1968.38,1098.74c-23.54-.53-117.5-2.52-140.81-3.14m139.71,1.9c-23.77-.85-117.38-3.5-140.54-3.71" transform="translate(-556.9 -426.66)"/><path class="cls-49" d="M1853.53,1084.69c-9.23,5.34-20.92,5.64-28.34,9.41m28.54-9.54c-7.54,1.78-15,4.93-27.2,8.75" transform="translate(-556.9 -426.66)"/><path class="cls-49" d="M1853.13,1104.59c-9-2.42-20.55-9.87-27.94-10.49m28.15,10.35c-7.35-3.9-14.65-6.43-26.81-11.14" transform="translate(-556.9 -426.66)"/><path class="cls-49" d="M1984.82,1120.42c-20.35,17.22-102.29,84.84-122.74,101.94M1983.54,1120c-20.51,17.36-102.25,86-122.66,103.31" transform="translate(-556.9 -426.66)"/><path class="cls-49" d="M1877.13,1197.16c-7.53,6.83-10.35,15.47-14.67,26.64m12-24.88c-3.33,6.36-6.43,12.08-13.65,24.33" transform="translate(-556.9 -426.66)"/><path class="cls-49" d="M1890,1212.36c-10.93,2.8-17.18,7.36-27.51,11.44m24.78-9.68c-6.42,2.68-12.68,4.65-26.48,9.13" transform="translate(-556.9 -426.66)"/><path class="cls-10" d="M1968.21,841.9a39.77,39.77,0,0,1,19.27-13,37.77,37.77,0,0,1,22.81,1.39,39.8,39.8,0,0,1,17.57,15.29,40.41,40.41,0,0,1-3,45.63A39.69,39.69,0,0,1,2005.44,904a37.82,37.82,0,0,1-22.79-1.67,40,40,0,0,1-17.4-15.49,40.47,40.47,0,0,1,3.5-45.61" transform="translate(-556.9 -426.66)"/><path class="cls-50" d="M1968.21,841.9a39.77,39.77,0,0,1,19.27-13,37.77,37.77,0,0,1,22.81,1.39,39.8,39.8,0,0,1,17.57,15.29,40.41,40.41,0,0,1-3,45.63A39.69,39.69,0,0,1,2005.44,904a37.82,37.82,0,0,1-22.79-1.67,40,40,0,0,1-17.4-15.49,40.47,40.47,0,0,1,3.5-45.61" transform="translate(-556.9 -426.66)"/><path class="cls-51" d="M1803.62,917.77a39.77,39.77,0,0,1,19.27-13,37.77,37.77,0,0,1,22.81,1.39,39.8,39.8,0,0,1,17.57,15.29,40.39,40.39,0,0,1-3,45.62,39.55,39.55,0,0,1-19.41,12.81,37.74,37.74,0,0,1-22.79-1.66,40,40,0,0,1-17.4-15.49,40.43,40.43,0,0,1,3.5-45.61" transform="translate(-556.9 -426.66)"/><path class="cls-52" d="M1803.62,917.77a39.77,39.77,0,0,1,19.27-13,37.77,37.77,0,0,1,22.81,1.39,39.8,39.8,0,0,1,17.57,15.29,40.39,40.39,0,0,1-3,45.62,39.55,39.55,0,0,1-19.41,12.81,37.74,37.74,0,0,1-22.79-1.66,40,40,0,0,1-17.4-15.49,40.43,40.43,0,0,1,3.5-45.61" transform="translate(-556.9 -426.66)"/><path class="cls-34" d="M1977.17,1264.88a39.75,39.75,0,0,1,19.27-13,37.7,37.7,0,0,1,22.81,1.39,39.78,39.78,0,0,1,17.57,15.28,40.43,40.43,0,0,1-3,45.63A39.65,39.65,0,0,1,2014.4,1327a37.75,37.75,0,0,1-22.79-1.66,40.07,40.07,0,0,1-17.4-15.5,40.46,40.46,0,0,1,3.5-45.6" transform="translate(-556.9 -426.66)"/><path class="cls-43" d="M1977.17,1264.88a39.75,39.75,0,0,1,19.27-13,37.7,37.7,0,0,1,22.81,1.39,39.78,39.78,0,0,1,17.57,15.28,40.43,40.43,0,0,1-3,45.63A39.65,39.65,0,0,1,2014.4,1327a37.75,37.75,0,0,1-22.79-1.66,40.07,40.07,0,0,1-17.4-15.5,40.46,40.46,0,0,1,3.5-45.6" transform="translate(-556.9 -426.66)"/><path class="cls-53" d="M1867.61,678.29a39.64,39.64,0,0,1,19.27-13,37.77,37.77,0,0,1,22.81,1.38,39.8,39.8,0,0,1,17.57,15.29,40.41,40.41,0,0,1-3,45.63,39.69,39.69,0,0,1-19.41,12.81,37.74,37.74,0,0,1-22.79-1.67,39.93,39.93,0,0,1-17.4-15.49,40.46,40.46,0,0,1,3.5-45.6" transform="translate(-556.9 -426.66)"/><path class="cls-54" d="M1867.61,678.29a39.64,39.64,0,0,1,19.27-13,37.77,37.77,0,0,1,22.81,1.38,39.8,39.8,0,0,1,17.57,15.29,40.41,40.41,0,0,1-3,45.63,39.69,39.69,0,0,1-19.41,12.81,37.74,37.74,0,0,1-22.79-1.67,39.93,39.93,0,0,1-17.4-15.49,40.46,40.46,0,0,1,3.5-45.6" transform="translate(-556.9 -426.66)"/><path class="cls-55" d="M2079.94,673.44a39.78,39.78,0,0,1,19.28-13A37.7,37.7,0,0,1,2122,661.8a39.78,39.78,0,0,1,17.57,15.28,40.41,40.41,0,0,1-3,45.63,39.69,39.69,0,0,1-19.41,12.81,37.67,37.67,0,0,1-22.79-1.67A40,40,0,0,1,2077,718.36a40.44,40.44,0,0,1,3.51-45.6" transform="translate(-556.9 -426.66)"/><path class="cls-56" d="M2079.94,673.44a39.78,39.78,0,0,1,19.28-13A37.7,37.7,0,0,1,2122,661.8a39.78,39.78,0,0,1,17.57,15.28,40.41,40.41,0,0,1-3,45.63,39.69,39.69,0,0,1-19.41,12.81,37.67,37.67,0,0,1-22.79-1.67A40,40,0,0,1,2077,718.36a40.44,40.44,0,0,1,3.51-45.6" transform="translate(-556.9 -426.66)"/><path class="cls-49" d="M2000.36,1045.94c-.2-22-1-109.81-1.19-131.77m1.19,131.77c-.2-22-1-109.81-1.19-131.77" transform="translate(-556.9 -426.66)"/><path class="cls-49" d="M2009.36,941.41l-10.19-27.24m10.19,27.24c-3.48-9.32-7-18.64-10.19-27.24" transform="translate(-556.9 -426.66)"/><path class="cls-49" d="M1989.47,941.59c3.85-10.87,7.68-21.74,9.7-27.42m-9.7,27.42c3.31-9.37,6.63-18.76,9.7-27.42" transform="translate(-556.9 -426.66)"/><path class="cls-49" d="M1970.93,835.3l-59.35-102.49m59.35,102.49-59.35-102.49" transform="translate(-556.9 -426.66)"/><path class="cls-49" d="M1933.88,751.48l-22.3-18.67m22.3,18.67-22.3-18.67" transform="translate(-556.9 -426.66)"/><path class="cls-49" d="M1916.67,761.46c-1.71-9.62-3.42-19.24-5.09-28.65m5.09,28.65c-1.93-10.82-3.85-21.64-5.09-28.65" transform="translate(-556.9 -426.66)"/><path class="cls-49" d="M2022.94,835.46l70.92-104.59m-70.92,104.59,70.92-104.59" transform="translate(-556.9 -426.66)"/><path class="cls-49" d="M2086.75,759.08c1.61-6.36,3.21-12.72,7.11-28.21m-7.11,28.21c2.2-8.72,4.39-17.44,7.11-28.21" transform="translate(-556.9 -426.66)"/><path class="cls-49" d="M2070.29,747.92l23.57-17m-23.57,17c7.28-5.28,14.57-10.54,23.57-17" transform="translate(-556.9 -426.66)"/><path class="cls-49" d="M1979.76,1057.5l-116.57-91.65m116.57,91.65-116.57-91.65" transform="translate(-556.9 -426.66)"/><path class="cls-49" d="M1890.84,974.93l-27.65-9.08m27.65,9.08-27.65-9.08" transform="translate(-556.9 -426.66)"/><path class="cls-49" d="M1878.53,990.57l-15.34-24.72m15.34,24.72-15.34-24.72" transform="translate(-556.9 -426.66)"/><path class="cls-49" d="M2004,1125.6c0,20.67.13,103.37.15,124.05M2004,1125.6c0,20.67.13,103.37.15,124.05" transform="translate(-556.9 -426.66)"/><path class="cls-49" d="M1994.15,1222.32l10,27.33m-10-27.33,10,27.33" transform="translate(-556.9 -426.66)"/><path class="cls-49" d="M2014,1222.29c-3.93,10.86-7.87,21.71-9.91,27.36m9.91-27.36c-2.6,7.22-5.22,14.42-9.91,27.36" transform="translate(-556.9 -426.66)"/><rect class="cls-57" x="2356.36" y="372.64" width="365.05" height="84.15" rx="6.5" ry="6.5"/><rect class="cls-58" x="2357.84" y="201.3" width="410.09" height="43.05" rx="5.76" ry="5.76"/><rect class="cls-59" x="2356.36" y="479.02" width="365.05" height="84.15" rx="6.5" ry="6.5"/><rect class="cls-59" x="2356.36" y="585.41" width="365.05" height="84.15" rx="6.5" ry="6.5"/><rect class="cls-35" x="2356.36" y="787.43" width="365.05" height="84.15" rx="6.5" ry="6.5"/><rect class="cls-10" x="2356.36" y="899.27" width="365.05" height="84.15" rx="6.5" ry="6.5"/><rect class="cls-34" x="2356.36" y="1062.2" width="365.05" height="84.15" rx="6.5" ry="6.5"/><rect class="cls-58" x="2363.12" y="325.72" width="201.7" height="24.49" rx="3.12" ry="3.12"/><rect class="cls-58" x="2363.12" y="743.62" width="201.7" height="24.49" rx="3.12" ry="3.12"/><ellipse class="cls-60" cx="2724.76" cy="1924.24" rx="99.01" ry="17.05"/><path class="cls-61" d="M3201.83,2497.5c14.07,10.32,143.89,10,152.87,0l26-146.6-198,.12Z" transform="translate(-556.9 -426.66)"/><path class="cls-62" d="M3191.94,2348.94c0,3.37,9.33,6.33,24.64,8.63,3.07.4,6.39.8,10,1.21,3.2.4,6.66.67,10.26.94,1.33.14,2.79.27,4.26.41,2.79.13,5.72.27,8.79.54,1.86,0,3.73.13,5.59.27,6.53.27,13.45.4,20.64.4,2.14.14,4.13.14,6.26.14,1.87,0,3.87,0,5.73-.14,4.8,0,9.59,0,14.12-.13,4.79-.14,9.32-.41,13.72-.54,33.29-1.89,56.73-6.48,56.73-11.73,0-4.59-17.05-8.5-42.62-10.79h-.8c-4.12-.41-8.52-.68-13.05-1-.13,0-.13,0-.26-.13-1.47,0-2.93-.14-4.4-.14-6.13-.27-12.65-.53-19.31-.53-3.33-.14-6.53-.14-9.86-.14h-4.12c-8.4,0-16.52.27-24.11.67l-8.66.41c-3.59.27-6.92.54-10.25.81-2.53.13-4.93.4-7.33.67-3.86.41-7.46.81-10.65,1.35-3.6.54-6.79,1.08-9.59,1.62C3197.67,2343.81,3191.94,2346.24,3191.94,2348.94Z" transform="translate(-556.9 -426.66)"/><path class="cls-63" d="M3039.41,2260.64a.55.55,0,1,0,1.05.34,58.45,58.45,0,0,1,56.34-38.86,75.67,75.67,0,0,1,16.21,2.2c17.06,16.21,33.34,33.43,47.94,53.11.94,1.26,1.71,2.52,2.49,3.6-15.08,3.07-29.39,12.45-41.67,22.37a136.74,136.74,0,0,0-20.84,20c-6.53,7.93-11.19,16.95-16.17,26.33-1.09,2.17,1.56,4.51,3.27,2.71,5.75-6.5,12.43-12.27,18.66-18.22,6.21-6.13,12.28-12.26,18.81-17.86,12.91-10.82,27.83-22,43.85-24.34h1.4a426,426,0,0,1,26,43.1c1.09,1.81,1.86,3.43,2.8,5.23,2.64,5.05,5.13,10.46,7.62,15.87q5.36.83,11.66,1.63c-1.4-3.61-3-7.4-4.51-11-2-4.69-4.2-9.38-6.38-13.89a387.63,387.63,0,0,0-21.3-38.42c10.42,4.33,19.28,13.53,26.28,23.81a90.34,90.34,0,0,1,7.46,12.8,88.54,88.54,0,0,1,5.13,12.09,45.35,45.35,0,0,1,1.42,5c-.27.58,3.87,10.82,3.87,10.82l9.51,1s-3.51-16.28-6.17-24.05c-.06-1.17-.15-2.33-.21-3.49,3,4.49,6.13,9,9.17,13.49a135.8,135.8,0,0,0,2.94,14.27c2.18,0,4.35.18,6.53.36,0-7.58-.38-15.07-.88-22.55a153.58,153.58,0,0,1,4.3,21.63.65.65,0,0,0,1.29,0c1.84-14.66-1.8-29.15-7.14-42.82.11-8.16.14-16.24.41-24.43.16-6.5.62-12.81,1.09-19.3.15,0,.15.18.31.18a103.27,103.27,0,0,1,8.64,11.2c-3,23.53-3.87,47.76,1.12,70.59a.57.57,0,0,0,1.13-.18,395.8,395.8,0,0,1,1.79-63.55c1.75,3,3.12,6.34,4.66,9.54.76,13.6.68,27.24.27,40.94-2.18,5.65-4.16,11.33-6.72,16.89-.18.38.29.68.5.33,2.14-3.57,4.1-7.24,6-10.94-.16,3.82-.17,7.61-.4,11.45a1.13,1.13,0,0,0,2.24.35c1.18-6.9,1.92-13.89,2.48-20.91q2.77-6.15,5.16-12.49c.11.36.25.7.34,1.07.62,2.52,1.24,5.05,1.71,7.75l-.15.18c-1.4,8.66-2.8,17.14-4.05,25.61,2.49.19,4.82.19,7.31.19,2.18,0,4.51,0,6.69-.19.93-7.21,2-14.42,3-21.46q.93-6,1.87-11.9c3.57-23.27,7.77-46.54,13.06-69.26.36-1.52.85-3,1.22-4.5q-.51,13.3-1.62,26.55a204.67,204.67,0,0,0-4,24.75.5.5,0,0,0,1,.15c.21-1.51.65-2.94.89-4.45-2.2,18.75-5.2,37.4-9.14,55.89-.41,1.89,2,2.67,2.52.8a481.62,481.62,0,0,0,13.95-87.11,255.31,255.31,0,0,1,25.91-56.22c-6.31,16.13-12.16,32.51-16.93,49.35-7.62,26.9-10.19,54.77-15.67,82.13-1.19,1.22-2.39,2.42-3.54,3.69-1.3,1.45.36,3.63,1.84,2.77.17-.09.32-.21.48-.3-.23,1.07-.38,2.15-.63,3.21-.33,1.43,1.56,2.44,2.11,1,.83-2.13,1.46-4.34,2.16-6.52,1.58-1,3.17-2,4.76-3-.05.12-.12.22-.17.34l-.15.18c-2.34,4.51-4.51,9-6.38,13.7,5.6-.18,10.88-.54,16-.72,5.75-9.56,11-19.84,16.48-30.12a10.55,10.55,0,0,1,.56-1.13c6.38-4.64,12.67-9.45,19-14.3,1.4-.51,2.83-.89,4.23-1.38-7.41,16.33-16.71,31.13-30.23,42.35-1.05.88-.14,2.77,1,2,16-9.88,26.36-27.4,34.16-46q13.33-4.43,26.93-7.69c-2.2,2.14-4.49,4.15-6.65,6.34-12.23,12.43-24.11,26.43-30,44.33a.5.5,0,0,0,.89.44c11.51-20.46,26.65-37.42,43-52.9,15.85-3.34,31.91-5.8,48.05-5.25,17.81.62,32.77,6,48.7,15,.51.29,1.14-.49.65-1-23.93-23.21-60.14-21.1-89.64-16,10.75-9.7,21.84-18.92,32.65-28.11,4-3.44,8.21-6.71,12.29-10.1,2-.31,4-.72,6.12-.87,28.27-2.1,56.7,8.83,77.67,31.09a126.56,126.56,0,0,1,22.67,33.94,134.71,134.71,0,0,1,8,22.57c1.33,5.15,1.55,8.55,5.19,11.69a1.09,1.09,0,0,0,1.58-.48c5.14-9.74-4.15-29.1-8.13-38.3a135.38,135.38,0,0,0-23.24-36.51c-19.78-22.07-46.34-34.72-73.66-36.49,22.43-18.28,45-36.39,67-55.29.51-.43.06-1.4-.5-1-25,17.57-49.25,36.59-73.15,56.17-29.28.17-56.09,14.29-80.32,32.71-1.65,1.25-3.23,2.62-4.86,3.89,2.89-9.1,5.61-18.27,8.08-27.55,13.8-18.64,28.95-35.91,45.69-50.44,12.91,1.81,24.88,6.86,36.86,14.43,2,1.27,3.88-1.62,2.48-3.6a61.61,61.61,0,0,0-27.52-20.2,176.39,176.39,0,0,1,37.16-21.65c1.09-.36.78-2-.15-2-18.66-2.17-35.3,8.11-50.23,20.2a70.23,70.23,0,0,0-31.4,2.92,509.11,509.11,0,0,0,6.28-57.8c22.45-20.14,48.6-37.2,77.35-39.25,27.53-2,57.27,9.71,73.17,37.11.19.32.62,0,.45-.3-12.53-23.71-33.46-37-57-40.42-34.54-5.06-66.15,12.51-93.56,36.21a386.82,386.82,0,0,0-2.17-56.58,324.45,324.45,0,0,0,12.74-55.9c.13-1-1.08-1.45-1.35-.43-3.88,14.72-8.36,29.13-13.26,43.33a336.86,336.86,0,0,0-7.59-37.81c16-19.67,34.75-37.57,58.36-38.89.75,0,.74-1.28,0-1.34-24.08-1.86-43.36,16.22-59.64,35.47-.93-3.24-1.58-6.56-2.62-9.78a.5.5,0,1,0-.94.3c1,3.56,1.6,7.19,2.46,10.77-3.12,3.74-6.17,7.48-9.08,11.14a590.25,590.25,0,0,0-58.82,90c-5.9,11.08-11.64,22.66-17,34.6-1.33-8.3-2.57-16.62-4.31-24.78,7.5-24.14,15.23-48.18,23-72.21,10.18-31.57,20-63.54,34.22-93.06.35-.72-.56-1.33-.94-.64-15.6,28.33-26.63,59-37.16,90.24q-11.1,32.88-21.42,66.11a422.52,422.52,0,0,0-20.47-64.76c-.3-.72-1.35-.2-1.11.54a706.35,706.35,0,0,1,19,72.66c-.31,1-.62,2-.92,3-4.13-2.16-8.83-2.15-13.34-.77-.08-.38-.14-.76-.22-1.13-10-48.32-23.78-97-43.11-142.17q2.93-27.68,5.91-55.42a.56.56,0,0,0-1.1-.18c-3.32,15.56-6.11,31.34-8.54,47.23-11.5-25.63-24.76-50.08-40.35-72.4-.5-.72-1.57.25-1.1,1,15.68,24.56,29,51.28,40.38,79.17-6.86,47.57-10.31,96.18-12,144-17.36-34.71-38.27-67.46-61.78-95.79-.47-.57-1.35.19-.95.85,21.51,35.27,43.77,69.27,62.33,106.3,0,1-.07,2-.1,2.92-.72,24.5-.71,49-.34,73.54-4.74-12.81-9.78-25.48-15.29-37.86-10.11-22.91-21.15-47.8-37.63-65.65-1.25-1.63-4-.18-3.27,2.16,7,23.45,19.59,44.73,29.54,66.55,8.56,18.4,16,37.52,22.86,57a84.31,84.31,0,0,0-12.23-3.81q-4-7-8-14.1c-27.6-49.1-49.58-100.92-46.42-161a.27.27,0,0,0-.54-.08c-9,52,12.36,104.7,35.09,148,4.67,8.9,9.61,17.6,14.5,26.33a78.24,78.24,0,0,0-8.17-1.13c-5.28-7-10.66-13.79-16.12-20.19-8.49-10-17.51-19.28-26.71-28.36-1.23-2.37-2.53-4.68-3.73-7.07-17.91-35.4-35.5-74.76-39.26-116.17-3.91-43.07,14.2-80.31,31.09-116.91.41-.9-.66-1.58-1.16-.78-18.19,28.89-34.84,61.1-36.8,97.67-2,36.75,10.59,72.9,24.36,105.24,3.49,8.18,7.21,16.2,11.06,24.13-1.07-1-2.1-2.07-3.18-3.06a476.91,476.91,0,0,1-20.19-43.44c-11.28-28.19-25-63.87-14.8-94.87a.57.57,0,0,0-1-.5c-13.14,26.86-1.55,59.41,7.93,85.34a447.44,447.44,0,0,0,20.06,46.06c-2.64-2.36-5.16-4.91-7.83-7.23-21.69-18.8-45.11-39.17-70.55-50.54-1-.45-1.36,1.22-.66,1.83,21.46,18.94,45.52,33.9,67.24,52.58,6.47,5.56,12.7,11.54,19,17.41q5.48,10.23,11.27,20.22c8.28,14.22,16.9,28.21,25.71,42.09-1.38.45-2.79.67-4.16,1.25s-1.08,3.06.47,3.06c2.19-.08,4.37.08,6.56.11q9,14,18.1,27.84a231.28,231.28,0,0,0-38.07-30.87,174.18,174.18,0,0,0-16.5-9.48c-21.67-23.07-46.14-42.68-73.34-54.51-2.33-.9-3.11,2.7-1.55,4.15,15.31,13.44,30.6,26.71,45.46,40.51a64.6,64.6,0,0,0-23.88.31A57.61,57.61,0,0,0,3039.41,2260.64Zm148.3-27.23a64.39,64.39,0,0,0-8.8,1.29c-6.15-10.75-12.27-21.53-18.22-32.43,3.86,4.11,7.95,7.95,11.68,12.23C3177.75,2220.65,3182.81,2227,3187.71,2233.41Zm38,49.61a310.9,310.9,0,0,0-22.85-38.13c2.17.55,4.28,1.28,6.42,1.93q8.28,14.73,16.19,29.71C3225.52,2278.71,3225.59,2280.84,3225.68,2283Zm69.76-144.55c-1.44,4.77-3,9.5-4.39,14.29-.42,1.43-.78,2.9-1.19,4.33-.93-6.12-2-12.16-3.1-18.15a13.38,13.38,0,0,1,3.88-1.48A9.83,9.83,0,0,1,3295.44,2138.47Zm9.34,22.11c-4,9.26-7.7,18.74-11.12,28.35q-.85-9.79-2.1-19.5c1.65-5.72,3.15-11.49,4.84-17.18,1.19-4,2.48-7.92,3.69-11.89a9.49,9.49,0,0,0,1.63.5C3302.89,2147.39,3303.8,2154,3304.78,2160.58Zm99.13-33.47c-4.17,4.6-8.07,9.59-11.92,14.65-6,5.93-11.77,12-17.25,18.08-3.5,3.86-6.92,7.83-10.28,11.87,13.52-30.59,27.68-61.2,38.35-93.22A421.59,421.59,0,0,1,3403.91,2127.11Zm-7.06,66.7a74.94,74.94,0,0,0-23.95,14.54c-16.33,14.79-25.35,36.07-33.59,57.71-1.7,4.5-3.3,9.06-5,13.58a412.86,412.86,0,0,1,17.77-58.24c10.1-25.61,23-48.31,37.39-70.3,3.95-4,7.9-8,11.91-11.81.61-.58,1.27-1.14,1.89-1.72A509.25,509.25,0,0,1,3396.85,2193.81Zm-2.95,33.31c1.47-6.6,2.78-13.24,4-19.87a65.79,65.79,0,0,1,20.2-5.4C3409.67,2209.8,3401.67,2218.32,3393.9,2227.12Zm-20.21,76.29c3.54-2.82,7.1-5.6,10.64-8.44,19.21-15.45,39.22-30.22,61.93-36.23-4,3.42-8.22,6.63-12.22,10.1q-15.52,13.41-30.64,27.53C3393.45,2298.29,3383.5,2300.54,3373.69,2303.41Zm-15.45-6.26,0-.06c7.23-12.17,14.77-24,22.75-35.4-2.12,7.47-4.09,15-6.45,22.36C3369.12,2288.39,3363.62,2292.65,3358.24,2297.15Zm-32.42,27.56c.14-.82.28-1.63.4-2.46,7-14.37,13.39-29.06,19.46-44.1,7.47-18.76,14.78-38.78,27.68-53.39a70.88,70.88,0,0,1,20.43-15.81c-1.63,8.22-3.35,16.41-5.28,24.55-3,3.58-6.17,7-9.08,10.74a592.57,592.57,0,0,0-39.66,58.08c-4.38,7.24-9,14.56-13.41,22Zm31.44-136.47q8.73-11.5,18.24-22.15a381.67,381.67,0,0,0-26.86,54.89,358.64,358.64,0,0,0-21.49,78.66c-3.29,9.59-6.43,19.23-9.15,29-.41,1.35-.77,2.77-1.16,4.14a51.18,51.18,0,0,0-4.9,7c2.46-10.1,4.16-20.47,6-30.77a416.8,416.8,0,0,1,10.27-43.23C3336.1,2239.07,3346.4,2213.46,3357.26,2188.24Zm-47.2-25.63c5.1-12.4,10.58-24.67,16.74-36.7a590.48,590.48,0,0,1,53.37-85.55c4.52-6,9.25-12.32,14.22-18.51a394.89,394.89,0,0,1,6.87,41.66c-14.4,40.67-32.05,79.69-49,119.13-1.55,3.6-3,7.24-4.56,10.87-14.08,20.09-25.89,42.06-33.8,66,.4-8,.78-15.94.82-23.94a524.53,524.53,0,0,1,18.16-55.53c10.11-25.25,23.64-47.8,35.15-72,.62-1.27-.63-2.35-1.56-1.45-18.19,17.86-31.1,43.47-41.83,67.82-3.92,9-7.26,18.42-10.63,27.78C3313.28,2188.93,3311.89,2175.72,3310.06,2162.61Zm-27.13,152.07c10.73-34.34,13.71-71.79,11.86-108.92,3.45-11.63,7.27-23.14,11.66-34.46,1.39,10.79,2.48,21.64,3.11,32.61.19,3.28.08,6.55.2,9.82-4.18,12.5-8,25.18-11.35,37.9-5.91,22.19-10.42,44.73-14.61,67.28a39.74,39.74,0,0,0-.78-4C3283,2314.85,3283,2314.77,3282.93,2314.68Zm-4.64-13.82a404.57,404.57,0,0,1,11.84-77.34c.16,28.44-2.73,56.6-9.58,84.06C3279.78,2305.35,3279.17,2303,3278.29,2300.86Zm-9.07-41c.58-3.08,1-6.13,1.63-9.22,4.85-23.17,10.85-46,17.18-68.73.68,6.55,1,13.09,1.39,19.63-9.25,28.93-15.31,59.07-15.62,89.31-.19-.38-.33-.77-.52-1.14C3272.39,2279.75,3271,2269.79,3269.22,2259.9Zm-10.57-45.09c3.33-18.73,7.46-37.63,13.48-55.34,2.14-6.38,5.31-13.13,9.94-17.5,1.7,9.2,3.12,18.4,4.32,27.62-7.26,25.69-14.08,51.6-19.41,77.92C3264.66,2236.4,3261.79,2225.52,3258.65,2214.81Zm-6.26,45.84c1-11.92,2.57-23.66,4.47-35.26,3,11.36,5.55,22.89,7.63,34.53-.72,3.95-1.43,7.93-2.07,11.95-1.43-1.88-2.75-3.85-4.28-5.63C3256.43,2264.26,3254.25,2262.46,3252.39,2260.65Zm-3.49-75.81c-5.69-15.53-12.24-30.88-19.4-45.94,1.63-48.39,6.07-96.18,11.05-144,16.12,41.35,28.39,85,37.88,128.19.59,2.67,1,5.36,1.55,8a27.42,27.42,0,0,0-8.62,7.25c-11,14.44-15.36,37.06-19.13,56.22C3251.12,2191.34,3250.07,2188,3248.9,2184.84Zm-19.72-34.22c4.57,9.63,9,19.43,12.91,29.59,3,7.73,5.76,15.6,8.35,23.54-3.27,16-5.57,32.29-7.38,48.61-3-2.17-5.91-4.51-9.18-6.5-1.45-4.64-3.2-9.15-4.76-13.75C3228.53,2205,3228.48,2177.78,3229.18,2150.62Zm-25.92,127.09c-6.65-12.1-13.5-24.06-20.35-36,4,.31,7.93.57,11.85,1.27a326.78,326.78,0,0,1,31.62,54.76c.35,6.62,1,13.18,1.57,19.75-6.59-11-13.57-21.71-20.6-32.38C3206,2282.63,3204.61,2280.16,3203.26,2277.71Zm-58.82-40.08c5.9,3.46,11.64,7.26,17.16,11.25a202.72,202.72,0,0,1,40.94,39.42c.5.89,1,1.76,1.53,2.65s1.57,2.89,3,5.71c-8.43-8.67-18.42-15.1-29.83-16.35-.78-1.26-1.55-2.52-2.49-3.79A438.54,438.54,0,0,0,3144.44,2237.63Z" transform="translate(-556.9 -426.66)"/></svg>